<svg width="20" height="19" viewBox="0 0 20 19" fill="none" xmlns="http://www.w3.org/2000/svg">
<path d="M16.9595 0.259558C16.8737 0.102121 16.7103 0 16.5345 0H3.46138C3.28566 0 3.12219 0.0978661 3.03637 0.259558L0.0653862 5.70602C0.0245198 5.78261 0 5.86771 0 5.95707C0 7.17827 0.706988 8.22501 1.71639 8.68881V17.6712C1.71639 17.952 1.93707 18.1818 2.20678 18.1818H4.91622C4.92031 18.1818 4.9244 18.1818 4.92848 18.1818H8.72906C8.73314 18.1818 8.73723 18.1818 8.74132 18.1818H17.7891C18.0588 18.1818 18.2795 17.952 18.2795 17.6712V8.75263C18.2795 8.73136 18.2795 8.71434 18.2754 8.69732C19.2889 8.23352 20 7.18252 20 5.95707C20 5.86771 19.9796 5.78261 19.9346 5.70602L16.9595 0.259558ZM3.74745 1.02547H16.2485L18.5738 5.28477H1.42624L3.74745 1.02547ZM14.2338 6.30173C14.0785 7.22082 13.3061 7.91864 12.3784 7.91864C11.4508 7.91864 10.6784 7.22082 10.5231 6.30173H14.2338ZM9.481 6.30173C9.32571 7.22082 8.55333 7.91864 7.62566 7.91864C6.698 7.91864 5.92562 7.22082 5.76624 6.30173H9.481ZM1.01349 6.30173H4.72824C4.57295 7.22082 3.79649 7.91864 2.86882 7.91864C1.94115 7.9229 1.16878 7.22082 1.01349 6.30173ZM8.24275 17.1606H8.23866H5.41888V11.6503C5.41888 11.2503 5.72946 10.9227 6.11769 10.9227H7.54393C7.92808 10.9227 8.24275 11.2461 8.24275 11.6503V17.1606ZM17.2987 17.1606H9.21945V11.6503C9.21945 10.6887 8.46751 9.9015 7.53984 9.9015H6.11361C5.19003 9.9015 4.434 10.6844 4.434 11.6503V17.1649H2.69718V8.93986C2.75439 8.94411 2.81161 8.94411 2.86882 8.94411C3.85778 8.94411 4.73233 8.42074 5.24724 7.62505C5.76216 8.42074 6.6367 8.94411 7.62566 8.94411C8.61463 8.94411 9.48508 8.42074 10.0041 7.62505C10.519 8.42074 11.3935 8.94411 12.3784 8.94411C13.3674 8.94411 14.2378 8.42074 14.7528 7.62505C15.2677 8.42074 16.1422 8.94411 17.1312 8.94411C17.1884 8.94411 17.2415 8.93986 17.2987 8.93986V17.1606ZM17.1312 7.9229C16.2035 7.9229 15.4311 7.22507 15.2758 6.30598H18.9906C18.8312 7.22082 18.0588 7.9229 17.1312 7.9229Z" fill="black"/>
</svg>
