<svg width="132" height="40" viewBox="0 0 132 40" fill="none" 
    xmlns="http://www.w3.org/2000/svg">
    <path d="M30.0701 10.1328C38.8642 10.1328 45.2925 16.4268 45.2925 24.4827C45.2925 32.7359 38.8642 39.1861 30.0701 39.1861C21.2787 39.1861 14.8423 32.7359 14.8423 24.4827C14.8423 16.4268 21.2787 10.1328 30.0701 10.1328Z" fill="#E82429"/>
    <path d="M25.5003 17.0818C26.9894 17.0818 28.3894 17.6325 29.4388 18.6519L30.1482 19.3451L30.8631 18.6519C31.9179 17.6353 33.3152 17.0818 34.7962 17.0818C36.2906 17.0818 37.6934 17.6325 38.7454 18.6519C40.917 20.7535 40.917 24.1649 38.7454 26.2611L30.1509 34.5609L21.5565 26.2611C19.3822 24.1649 19.3822 20.7535 21.5565 18.6519C22.6112 17.6353 24.0086 17.0818 25.5003 17.0818Z" fill="white"/>
    <g opacity="0.9">
        <path opacity="0.65" d="M17.6425 25.9623C19.2368 29.9217 25.2875 30.1136 31.1439 26.398C37.003 22.6714 39.2177 17.2351 36.0832 14.2593C32.954 11.2808 26.9033 11.0863 22.5872 13.8291C18.263 16.5665 16.0537 22.0056 17.6425 25.9623Z" fill="url(#paint0_radial)"/>
    </g>
    <path fill-rule="evenodd" clip-rule="evenodd" d="M4.16017 0.183594L3.93896 1.42212H5.69239L4.6835 7.16811H5.89201L6.89551 1.42212H8.64623L8.87283 0.183594H4.16017Z" fill="white"/>
    <path fill-rule="evenodd" clip-rule="evenodd" d="M9.17492 0.183594L7.94482 7.16811H12.3446L12.5577 5.93781H9.34756L9.66588 4.12386H12.4875L12.706 2.88807H9.88438L10.1353 1.42212H13.2132L13.4344 0.183594H9.17492Z" fill="white"/>
    <path fill-rule="evenodd" clip-rule="evenodd" d="M14.1275 0.183594L12.9082 7.16811H16.995L17.2189 5.90493H14.3352L15.3468 0.183594H14.1275Z" fill="white"/>
    <path fill-rule="evenodd" clip-rule="evenodd" d="M18.7406 0.183594L17.5132 7.16811H18.7136L19.129 4.80889L19.8223 4.10742L21.0713 7.16811H22.6305L20.8582 3.04426L23.7122 0.183594H22.1611L19.4527 3.02508L19.9437 0.183594H18.7406Z" fill="white"/>
    <path fill-rule="evenodd" clip-rule="evenodd" d="M26.6122 0C25.3363 0 23.6665 0.879573 23.1728 3.67722C22.6953 6.42828 23.9848 7.36265 25.3147 7.36265C26.5987 7.36265 28.2469 6.49678 28.7487 3.66626C29.237 0.879573 27.8693 0 26.6122 0ZM26.3856 1.23853C27.3783 1.23853 27.7964 2.19208 27.5321 3.66352C27.2542 5.2747 26.4638 6.11865 25.5332 6.11865C24.5378 6.11865 24.1224 5.16235 24.3894 3.67448C24.6754 2.05234 25.49 1.23853 26.3856 1.23853Z" fill="white"/>
    <path fill-rule="evenodd" clip-rule="evenodd" d="M29.8441 0.183594L28.6221 7.16811H29.747L30.7747 1.34814H30.7882L30.826 7.16811H32.0021L34.1143 1.33718L34.1305 1.32896L33.1 7.16811H34.2303L35.4604 0.183594H33.7097L31.7108 5.6912H31.6919L31.6191 0.183594H29.8441Z" fill="white"/>
    <path fill-rule="evenodd" clip-rule="evenodd" d="M38.2494 0C36.3638 0 35.7731 1.36731 35.6409 2.16468C35.363 3.67448 36.2155 3.98685 37.1138 4.20058L37.718 4.37594C38.3034 4.55405 38.7026 4.69653 38.6028 5.25277C38.4626 6.02 37.7207 6.15427 37.2459 6.15427C36.5689 6.15427 36.0914 5.8556 36.2074 5.01987H35.0393C34.7831 6.50774 35.5627 7.35991 37.0868 7.35991C38.2387 7.35991 39.4984 6.74065 39.7979 5.06645C40.0325 3.70188 39.2179 3.38128 38.5705 3.17852L37.2648 2.77298C37.0463 2.70174 36.6902 2.59488 36.7928 2.0359C36.8926 1.40841 37.4806 1.20564 37.9419 1.20564C38.9967 1.20564 38.9643 1.94547 38.9427 2.26058H40.1027C40.2403 1.39745 40.0191 0 38.2494 0Z" fill="white"/>
    <path fill-rule="evenodd" clip-rule="evenodd" d="M41.1549 0.183594L39.9248 7.16811H44.3219L44.5431 5.93781H41.3329L41.654 4.12386H44.4783L44.6941 2.88807H41.8671L42.1287 1.42212H45.1986L45.4117 0.183594H41.1549Z" fill="white"/>
    <path fill-rule="evenodd" clip-rule="evenodd" d="M46.1207 0.183594L44.8906 7.16811H48.9828L49.204 5.90493H46.3203L47.3265 0.183594H46.1207Z" fill="white"/>
    <path d="M9.40399 31.8209L14.2057 32.5087C16.0131 32.7663 17.2728 34.4651 17.0166 36.301C16.763 38.1369 15.0905 39.4165 13.2831 39.1562L2.84349 37.6628C1.03611 37.4053 -0.223659 35.7064 0.0326112 33.8705L2.84618 13.5718C3.18338 11.1469 5.39 9.45621 7.78005 9.79872C10.1674 10.1412 11.8318 12.3826 11.4946 14.8104L9.18009 31.5195C9.15851 31.662 9.25832 31.799 9.40399 31.8209Z" fill="#079BAB"/>
    <path d="M56.2229 31.7769L61.3079 31.2371C63.1233 31.0453 64.7473 32.3825 64.9388 34.2266C65.1276 36.0707 63.8112 37.7202 61.9958 37.9148L51.5103 39.0272C49.6948 39.219 48.0708 37.8819 47.8793 36.0378L45.7833 15.6514C45.5324 13.2155 47.2751 11.0344 49.6732 10.7795C52.0714 10.5247 54.2186 12.2948 54.4695 14.7308L56.2229 31.7769Z" fill="#6F7072"/>
    <path d="M82.3139 14.2075L74.9279 27.9135L74.8254 32.0675C74.7661 34.5172 72.7618 36.4517 70.3502 36.3914C67.9385 36.3311 66.034 34.2952 66.0934 31.8456L66.1959 27.6916L59.5383 13.7171C58.2407 10.9907 60.2423 7.83407 63.2231 7.9108C65.3273 7.9656 67.2048 9.26715 68.0221 11.2373L70.6766 17.6519C70.7548 17.8409 71.0137 17.8464 71.1028 17.6628L74.0971 11.3359C74.9927 9.44251 76.8999 8.25879 78.9662 8.31085C81.9066 8.38483 83.7248 11.5908 82.3139 14.2075Z" fill="#F69220"/>
    <path d="M107.151 15.6185L107.135 15.7747C106.927 17.6626 105.254 19.0217 103.396 18.8107L99.7217 18.3942C99.5491 18.3751 99.3953 18.5011 99.3764 18.6737L97.5745 35.076C97.3074 37.5092 95.1466 39.2629 92.7512 38.9916C90.3557 38.7203 88.6293 36.5255 88.8964 34.0923L90.7037 17.638C90.7199 17.4927 90.6174 17.3612 90.4717 17.3448L86.8246 16.931C84.966 16.72 83.628 15.0212 83.8357 13.1332L83.8519 12.9771C84.0596 11.0891 85.7321 9.73004 87.5907 9.94102L104.165 11.8207C106.021 12.029 107.359 13.7306 107.151 15.6185Z" fill="#079BAB"/>
    <path d="M122.211 33.4786L113.655 34.8267C113.493 34.8514 113.366 34.9802 113.342 35.1418C112.943 37.6271 111.435 39.9535 108.564 39.9535C106.161 40.3316 104.119 38.1669 104.594 35.7419L108.427 16.2105C109.018 13.1964 111.402 10.8782 114.391 10.4069C117.377 9.93563 120.334 11.4125 121.791 14.1006L131.03 31.144C132.308 33.5033 130.889 36.4352 128.27 36.8489L127.771 36.9284C125.859 37.2298 123.976 36.2488 123.099 34.4979L122.721 33.7444C122.624 33.5526 122.419 33.4457 122.211 33.4786ZM119.338 26.9297L116.034 20.2877C115.953 20.1261 115.716 20.1644 115.686 20.3425L114.518 27.6888C114.499 27.8148 114.604 27.9244 114.728 27.9025L119.204 27.1983C119.328 27.1791 119.395 27.0448 119.338 26.9297Z" fill="#E82429"/>
    <defs>
        <radialGradient id="paint0_radial" cx="0" cy="0" r="1" gradientUnits="userSpaceOnUse" gradientTransform="translate(33.1521 29.1753) rotate(-32.406) scale(17.744 19.7608)">
            <stop offset="0.5056" stop-color="#E82429"/>
            <stop offset="0.5416" stop-color="#E92E33"/>
            <stop offset="0.6026" stop-color="#EC494D"/>
            <stop offset="0.6812" stop-color="#F07477"/>
            <stop offset="0.7745" stop-color="#F7B1B2"/>
            <stop offset="0.879" stop-color="#FFFDFD"/>
            <stop offset="0.882" stop-color="white"/>
        </radialGradient>
    </defs>
</svg>
